<svg xmlns="http://www.w3.org/2000/svg" viewBox="0 0 200 50">
    <defs>
        <linearGradient id="logoGradient" x1="0%" y1="0%" x2="100%" y2="0%">
            <stop offset="0%" style="stop-color:#4361ee"/>
            <stop offset="100%" style="stop-color:#4895ef"/>
        </linearGradient>
    </defs>
    <g fill="none" stroke="none">
        <!-- Icon -->
        <path fill="url(#logoGradient)" d="M25 10c-8.284 0-15 6.716-15 15 0 8.284 6.716 15 15 15 8.284 0 15-6.716 15-15 0-8.284-6.716-15-15-15zm7.5 16.25h-6.25v6.25c0 .69-.56 1.25-1.25 1.25s-1.25-.56-1.25-1.25v-6.25h-6.25c-.69 0-1.25-.56-1.25-1.25s.56-1.25 1.25-1.25h6.25v-6.25c0-.69.56-1.25 1.25-1.25s1.25.56 1.25 1.25v6.25h6.25c.69 0 1.25.56 1.25 1.25s-.56 1.25-1.25 1.25z"/>
        <!-- Text -->
        <text x="55" y="35" fill="#2b2d42" font-family="Inter, sans-serif" font-size="24" font-weight="600">
            Multi-Tools
        </text>
    </g>
</svg> 